<?xml version="1.0" encoding="UTF-8" standalone="no"?>
<!-- Created with Inkscape (http://www.inkscape.org/) -->

<svg
   xmlns:dc="http://purl.org/dc/elements/1.1/"
   xmlns:cc="http://creativecommons.org/ns#"
   xmlns:rdf="http://www.w3.org/1999/02/22-rdf-syntax-ns#"
   xmlns:svg="http://www.w3.org/2000/svg"
   xmlns="http://www.w3.org/2000/svg"
   xmlns:sodipodi="http://sodipodi.sourceforge.net/DTD/sodipodi-0.dtd"
   xmlns:inkscape="http://www.inkscape.org/namespaces/inkscape"
   width="87mm"
   height="57mm"
   viewBox="0 0 87 57"
   version="1.1"
   id="svg9191"
   inkscape:version="0.92.4 5da689c313, 2019-01-14"
   sodipodi:docname="back.svg"
   inkscape:export-filename="/home/m/git/codefreeze.fi/kudos-cards/back.svg.png"
   inkscape:export-xdpi="299.89825"
   inkscape:export-ydpi="299.89825">
  <defs
     id="defs9185" />
  <sodipodi:namedview
     id="base"
     pagecolor="#ffffff"
     bordercolor="#666666"
     borderopacity="1.0"
     inkscape:pageopacity="0.0"
     inkscape:pageshadow="2"
     inkscape:zoom="4.0119892"
     inkscape:cx="153.33553"
     inkscape:cy="132.3521"
     inkscape:document-units="mm"
     inkscape:current-layer="layer1"
     showgrid="false"
     fit-margin-top="1"
     fit-margin-left="1"
     fit-margin-right="1"
     fit-margin-bottom="1"
     inkscape:snap-page="true"
     inkscape:window-width="3200"
     inkscape:window-height="1686"
     inkscape:window-x="0"
     inkscape:window-y="0"
     inkscape:window-maximized="1"
     inkscape:snap-global="false" />
  <metadata
     id="metadata9188">
    <rdf:RDF>
      <cc:Work
         rdf:about="">
        <dc:format>image/svg+xml</dc:format>
        <dc:type
           rdf:resource="http://purl.org/dc/dcmitype/StillImage" />
        <dc:title />
      </cc:Work>
    </rdf:RDF>
  </metadata>
  <g
     inkscape:label="Layer 1"
     inkscape:groupmode="layer"
     id="layer1"
     transform="translate(269.52975,54.132468)">
    <path
       style="color:#000000;clip-rule:nonzero;display:inline;overflow:visible;visibility:visible;opacity:1;isolation:auto;mix-blend-mode:normal;color-interpolation:sRGB;color-interpolation-filters:linearRGB;solid-color:#000000;solid-opacity:1;fill:#2b404d;fill-opacity:1;fill-rule:nonzero;stroke:none;stroke-width:0.2;stroke-linecap:round;stroke-linejoin:bevel;stroke-miterlimit:4;stroke-dasharray:none;stroke-dashoffset:0;stroke-opacity:1;color-rendering:auto;image-rendering:auto;shape-rendering:auto;text-rendering:auto;enable-background:accumulate"
       d="m -269.52975,-54.132468 v 57 h 87 v -57 z m 5.9997,6.000079 h 75.00007 v 8.577773 h -75.00007 z m 0,9.077999 h 75.00007 v 8.573638 h -75.00007 z m 0,9.073348 h 75.00007 v 8.574154 h -75.00007 z m 0,9.073865 h 75.00007 v 8.573638 h -75.00007 z m 0,9.073864 h 75.00007 v 8.7007624 h -75.00007 z"
       id="rect4562"
       inkscape:connector-curvature="0"
       sodipodi:nodetypes="cccccccccccccccccccccccccccccc" />
    <g
       id="g6658"
       transform="matrix(1.0878233,0,0,1.0878233,-3.7369944,25.951397)">
      <path
         d="m -238.68984,-23.144669 v -1.412522 h 0.0261 v 0.695678 h 0.56797 l 0.30057,-0.695678 h 0.0289 l -0.30091,0.695678 h 0.10724 c 0.21449,0 0.31644,0.07338 0.31644,0.256469 v 0.460375 h -0.0258 v -0.460375 c 0,-0.167569 -0.097,-0.230363 -0.29069,-0.230363 h -0.70379 v 0.690738 z"
         style="fill:#effafe;fill-opacity:1;fill-rule:nonzero;stroke:none;stroke-width:0.35277775"
         id="path3986"
         inkscape:connector-curvature="0" />
      <path
         d="m -238.68984,-23.144669 v -1.412522 h 0.0261 v 0.695678 h 0.56797 l 0.30057,-0.695678 h 0.0289 l -0.30091,0.695678 h 0.10724 c 0.21449,0 0.31644,0.07338 0.31644,0.256469 v 0.460375 h -0.0258 v -0.460375 c 0,-0.167569 -0.097,-0.230363 -0.29069,-0.230363 h -0.70379 v 0.690738 z"
         style="fill:none;stroke:#effafe;stroke-width:0.26458332;stroke-linecap:butt;stroke-linejoin:miter;stroke-miterlimit:10;stroke-dasharray:none;stroke-opacity:1"
         id="path3990"
         inkscape:connector-curvature="0" />
      <path
         d="m -236.44501,-23.144669 v -0.02611 h 0.40534 v -1.360311 h -0.40534 v -0.02611 h 0.83185 v 0.02611 h -0.40005 v 1.360311 h 0.40005 v 0.02611 z"
         style="fill:#effafe;fill-opacity:1;fill-rule:nonzero;stroke:none;stroke-width:0.35277775"
         id="path3994"
         inkscape:connector-curvature="0" />
      <path
         d="m -236.44501,-23.144669 v -0.02611 h 0.40534 v -1.360311 h -0.40534 v -0.02611 h 0.83185 v 0.02611 h -0.40005 v 1.360311 h 0.40005 v 0.02611 z"
         style="fill:none;stroke:#effafe;stroke-width:0.26458332;stroke-linecap:butt;stroke-linejoin:miter;stroke-miterlimit:10;stroke-dasharray:none;stroke-opacity:1"
         id="path3998"
         inkscape:connector-curvature="0" />
      <path
         d="m -234.44959,-23.144669 v -0.02611 h 0.40534 v -1.360311 h -0.40534 v -0.02611 h 0.83185 v 0.02611 h -0.40005 v 1.360311 h 0.40005 v 0.02611 z"
         style="fill:#effafe;fill-opacity:1;fill-rule:nonzero;stroke:none;stroke-width:0.35277775"
         id="path4002"
         inkscape:connector-curvature="0" />
      <path
         d="m -234.44959,-23.144669 v -0.02611 h 0.40534 v -1.360311 h -0.40534 v -0.02611 h 0.83185 v 0.02611 h -0.40005 v 1.360311 h 0.40005 v 0.02611 z"
         style="fill:none;stroke:#effafe;stroke-width:0.26458332;stroke-linecap:butt;stroke-linejoin:miter;stroke-miterlimit:10;stroke-dasharray:none;stroke-opacity:1"
         id="path4006"
         inkscape:connector-curvature="0" />
      <path
         d="m -232.4051,-24.557332 h 0.0261 v 1.386417 h 0.91052 v -0.515409 h 0.0261 v 0.541514 h -0.96273 z"
         style="fill:#effafe;fill-opacity:1;fill-rule:nonzero;stroke:none;stroke-width:0.35277775"
         id="path4010"
         inkscape:connector-curvature="0" />
      <path
         d="m -232.4051,-24.557332 h 0.0261 v 1.386417 h 0.91052 v -0.515409 h 0.0261 v 0.541514 h -0.96273 z"
         style="fill:none;stroke:#effafe;stroke-width:0.26458332;stroke-linecap:butt;stroke-linejoin:miter;stroke-miterlimit:10;stroke-dasharray:none;stroke-opacity:1"
         id="path4014"
         inkscape:connector-curvature="0" />
      <path
         d="m -229.71397,-23.136731 c 0.38982,0 0.50518,-0.130881 0.50518,-0.327025 v -0.771878 c 0,-0.196144 -0.11536,-0.327025 -0.50518,-0.327025 -0.38947,0 -0.49954,0.130881 -0.49954,0.327025 v 0.771878 c 0,0.196144 0.11007,0.327025 0.49954,0.327025 m 0,0.02611 c -0.41064,0 -0.52564,-0.141463 -0.52564,-0.35313 v -0.771878 c 0,-0.211666 0.115,-0.35313 0.52564,-0.35313 0.41063,0 0.53128,0.141464 0.53128,0.35313 v 0.771878 c 0,0.211667 -0.12065,0.35313 -0.53128,0.35313"
         style="fill:#effafe;fill-opacity:1;fill-rule:nonzero;stroke:none;stroke-width:0.35277775"
         id="path4018"
         inkscape:connector-curvature="0" />
      <path
         d="m -229.71397,-23.136731 c 0.38982,0 0.50518,-0.130881 0.50518,-0.327025 v -0.771878 c 0,-0.196144 -0.11536,-0.327025 -0.50518,-0.327025 -0.38947,0 -0.49954,0.130881 -0.49954,0.327025 v 0.771878 c 0,0.196144 0.11007,0.327025 0.49954,0.327025 z m 0,0.02611 c -0.41064,0 -0.52564,-0.141463 -0.52564,-0.35313 v -0.771878 c 0,-0.211666 0.115,-0.35313 0.52564,-0.35313 0.41063,0 0.53128,0.141464 0.53128,0.35313 v 0.771878 c 0,0.211667 -0.12065,0.35313 -0.53128,0.35313 z"
         style="fill:none;stroke:#effafe;stroke-width:0.26458332;stroke-linecap:butt;stroke-linejoin:miter;stroke-miterlimit:10;stroke-dasharray:none;stroke-opacity:1"
         id="path4022"
         inkscape:connector-curvature="0" />
      <path
         d="m -227.36476,-23.686253 c 0.30904,0 0.36654,-0.13335 0.36654,-0.321733 v -0.193675 c 0,-0.188384 -0.0575,-0.329495 -0.36654,-0.329495 h -0.53869 v 0.844903 z m -0.53869,0.02611 v 0.515408 h -0.0265 v -1.412522 h 0.56515 c 0.32985,0 0.39265,0.151694 0.39265,0.3556 v 0.193675 c 0,0.204258 -0.0628,0.347839 -0.39265,0.347839 z"
         style="fill:#effafe;fill-opacity:1;fill-rule:nonzero;stroke:none;stroke-width:0.35277775"
         id="path4026"
         inkscape:connector-curvature="0" />
      <path
         d="m -227.36476,-23.686253 c 0.30904,0 0.36654,-0.13335 0.36654,-0.321733 v -0.193675 c 0,-0.188384 -0.0575,-0.329495 -0.36654,-0.329495 h -0.53869 v 0.844903 z m -0.53869,0.02611 v 0.515408 h -0.0265 v -1.412522 h 0.56515 c 0.32985,0 0.39265,0.151694 0.39265,0.3556 v 0.193675 c 0,0.204258 -0.0628,0.347839 -0.39265,0.347839 z"
         style="fill:none;stroke:#effafe;stroke-width:0.26458332;stroke-linecap:butt;stroke-linejoin:miter;stroke-miterlimit:10;stroke-dasharray:none;stroke-opacity:1"
         id="path4030"
         inkscape:connector-curvature="0" />
      <path
         id="path4032"
         style="fill:#effafe;fill-opacity:1;fill-rule:nonzero;stroke:none;stroke-width:0.35277775"
         d="m -224.95186,-25.203303 h 0.0261 v 0.122766 h -0.0261 z m -0.67486,0 h 0.0261 v 0.122766 h -0.0261 z m -0.15417,1.582561 h 1.01988 v -0.08114 c 0,-0.09419 -0.0155,-0.172508 -0.0416,-0.243417 l -0.18062,-0.426508 c -0.0392,-0.09137 -0.0681,-0.159456 -0.1651,-0.159456 h -0.25611 c -0.10478,0 -0.13335,0.06809 -0.16757,0.156987 l -0.16722,0.428977 c -0.0265,0.07091 -0.0416,0.149225 -0.0416,0.243417 z m 1.01988,0.02611 h -1.01988 v 0.449792 h -0.0265 v -0.557036 c 0,-0.09701 0.0155,-0.1778 0.0444,-0.253647 l 0.16757,-0.429331 c 0.0392,-0.09666 0.0706,-0.172508 0.19086,-0.172508 h 0.25611 c 0.11571,0 0.14676,0.07338 0.18874,0.17533 l 0.18027,0.426509 c 0.0289,0.07585 0.0445,0.156633 0.0445,0.253647 v 0.557036 h -0.0261 z"
         inkscape:connector-curvature="0" />
      <path
         id="path4034"
         style="fill:none;stroke:#effafe;stroke-width:0.26458332;stroke-linecap:butt;stroke-linejoin:miter;stroke-miterlimit:10;stroke-dasharray:none;stroke-opacity:1"
         d="m -224.95186,-25.203303 h 0.0261 v 0.122766 h -0.0261 z m -0.67486,0 h 0.0261 v 0.122766 h -0.0261 z m -0.15417,1.582561 h 1.01988 v -0.08114 c 0,-0.09419 -0.0155,-0.172508 -0.0416,-0.243417 l -0.18062,-0.426508 c -0.0392,-0.09137 -0.0681,-0.159456 -0.1651,-0.159456 h -0.25611 c -0.10478,0 -0.13335,0.06809 -0.16757,0.156987 l -0.16722,0.428977 c -0.0265,0.07091 -0.0416,0.149225 -0.0416,0.243417 z m 1.01988,0.02611 h -1.01988 v 0.449792 h -0.0265 v -0.557036 c 0,-0.09701 0.0155,-0.1778 0.0444,-0.253647 l 0.16757,-0.429331 c 0.0392,-0.09666 0.0706,-0.172508 0.19086,-0.172508 h 0.25611 c 0.11571,0 0.14676,0.07338 0.18874,0.17533 l 0.18027,0.426509 c 0.0289,0.07585 0.0445,0.156633 0.0445,0.253647 v 0.557036 h -0.0261 z"
         inkscape:connector-curvature="0" />
      <path
         id="path4036"
         style="fill:#effafe;fill-opacity:1;fill-rule:nonzero;stroke:none;stroke-width:0.35277775"
         d="m -222.66833,-25.203303 h 0.0261 v 0.122766 h -0.0261 z m -0.67486,0 h 0.0261 v 0.122766 h -0.0261 z m -0.15452,1.582561 h 1.02023 v -0.08114 c 0,-0.09419 -0.0155,-0.172508 -0.0416,-0.243417 l -0.18062,-0.426508 c -0.0392,-0.09137 -0.0681,-0.159456 -0.1651,-0.159456 h -0.25611 c -0.10478,0 -0.13335,0.06809 -0.16757,0.156987 l -0.16757,0.428977 c -0.0261,0.07091 -0.0416,0.149225 -0.0416,0.243417 z m 1.02023,0.02611 h -1.02023 v 0.449792 h -0.0261 v -0.557036 c 0,-0.09701 0.0155,-0.1778 0.0444,-0.253647 l 0.16757,-0.429331 c 0.0392,-0.09666 0.0706,-0.172508 0.19085,-0.172508 h 0.25612 c 0.11536,0 0.14676,0.07338 0.18838,0.17533 l 0.18063,0.426509 c 0.0289,0.07585 0.0445,0.156633 0.0445,0.253647 v 0.557036 h -0.0261 z"
         inkscape:connector-curvature="0" />
      <path
         id="path4038"
         style="fill:none;stroke:#effafe;stroke-width:0.26458332;stroke-linecap:butt;stroke-linejoin:miter;stroke-miterlimit:10;stroke-dasharray:none;stroke-opacity:1"
         d="m -222.66833,-25.203303 h 0.0261 v 0.122766 h -0.0261 z m -0.67486,0 h 0.0261 v 0.122766 h -0.0261 z m -0.15452,1.582561 h 1.02023 v -0.08114 c 0,-0.09419 -0.0155,-0.172508 -0.0416,-0.243417 l -0.18062,-0.426508 c -0.0392,-0.09137 -0.0681,-0.159456 -0.1651,-0.159456 h -0.25611 c -0.10478,0 -0.13335,0.06809 -0.16757,0.156987 l -0.16757,0.428977 c -0.0261,0.07091 -0.0416,0.149225 -0.0416,0.243417 z m 1.02023,0.02611 h -1.02023 v 0.449792 h -0.0261 v -0.557036 c 0,-0.09701 0.0155,-0.1778 0.0444,-0.253647 l 0.16757,-0.429331 c 0.0392,-0.09666 0.0706,-0.172508 0.19085,-0.172508 h 0.25612 c 0.11536,0 0.14676,0.07338 0.18838,0.17533 l 0.18063,0.426509 c 0.0289,0.07585 0.0445,0.156633 0.0445,0.253647 v 0.557036 h -0.0261 z"
         inkscape:connector-curvature="0" />
    </g>
    <g
       transform="matrix(0.28781992,0,0,0.28781992,-228.74181,-87.040676)"
       id="g6685">
      <path
         d="m 50.755199,305.10986 h -1.558667 c -1.214667,0 -1.494667,-0.336 -1.494667,-1.204 v -2.61466 c 0,-0.88667 0.298667,-1.224 1.494667,-1.224 h 1.558667 v 0.0933 h -1.558667 c -1.102667,0 -1.401333,0.3 -1.401333,1.13067 v 2.61466 c 0,0.812 0.28,1.112 1.401333,1.112 h 1.558667 z"
         style="fill:#effafe;fill-opacity:1;fill-rule:nonzero;stroke:none;stroke-width:1.33333325"
         id="path3888"
         inkscape:connector-curvature="0" />
      <path
         d="m 50.755199,305.10986 h -1.558667 c -1.214667,0 -1.494667,-0.336 -1.494667,-1.204 v -2.61466 c 0,-0.88667 0.298667,-1.224 1.494667,-1.224 h 1.558667 v 0.0933 h -1.558667 c -1.102667,0 -1.401333,0.3 -1.401333,1.13067 v 2.61466 c 0,0.812 0.28,1.112 1.401333,1.112 h 1.558667 z"
         style="fill:none;stroke:#effafe;stroke-width:1;stroke-linecap:butt;stroke-linejoin:miter;stroke-miterlimit:10;stroke-dasharray:none;stroke-opacity:1"
         id="path3892"
         inkscape:connector-curvature="0" />
      <path
         d="m 56.738265,305.13853 c 1.390667,0 1.802667,-0.468 1.802667,-1.168 v -2.75333 c 0,-0.70134 -0.412,-1.168 -1.802667,-1.168 -1.390666,0 -1.784,0.46666 -1.784,1.168 v 2.75333 c 0,0.7 0.393334,1.168 1.784,1.168 m 0,0.0933 c -1.466666,0 -1.877333,-0.50533 -1.877333,-1.26133 v -2.75333 c 0,-0.75734 0.410667,-1.26267 1.877333,-1.26267 1.466667,0 1.896,0.50533 1.896,1.26267 v 2.75333 c 0,0.756 -0.429333,1.26133 -1.896,1.26133"
         style="fill:#effafe;fill-opacity:1;fill-rule:nonzero;stroke:none;stroke-width:1.33333325"
         id="path3896"
         inkscape:connector-curvature="0" />
      <path
         d="m 56.738265,305.13853 c 1.390667,0 1.802667,-0.468 1.802667,-1.168 v -2.75333 c 0,-0.70134 -0.412,-1.168 -1.802667,-1.168 -1.390666,0 -1.784,0.46666 -1.784,1.168 v 2.75333 c 0,0.7 0.393334,1.168 1.784,1.168 z m 0,0.0933 c -1.466666,0 -1.877333,-0.50533 -1.877333,-1.26133 v -2.75333 c 0,-0.75734 0.410667,-1.26267 1.877333,-1.26267 1.466667,0 1.896,0.50533 1.896,1.26267 v 2.75333 c 0,0.756 -0.429333,1.26133 -1.896,1.26133 z"
         style="fill:none;stroke:#effafe;stroke-width:1;stroke-linecap:butt;stroke-linejoin:miter;stroke-miterlimit:10;stroke-dasharray:none;stroke-opacity:1"
         id="path3900"
         inkscape:connector-curvature="0" />
      <path
         d="m 63.219998,300.16066 v 4.85734 h 2.166667 c 1.194667,0 1.4,-0.496 1.4,-1.17734 v -2.476 c 0,-0.68 -0.224,-1.204 -1.4,-1.204 z m -0.09333,-0.0933 h 2.26 c 1.269333,0 1.493333,0.57867 1.493333,1.29733 v 2.476 c 0,0.71867 -0.205333,1.26934 -1.493333,1.26934 h -2.26 z"
         style="fill:#effafe;fill-opacity:1;fill-rule:nonzero;stroke:none;stroke-width:1.33333325"
         id="path3904"
         inkscape:connector-curvature="0" />
      <path
         d="m 63.219998,300.16066 v 4.85734 h 2.166667 c 1.194667,0 1.4,-0.496 1.4,-1.17734 v -2.476 c 0,-0.68 -0.224,-1.204 -1.4,-1.204 z m -0.09333,-0.0933 h 2.26 c 1.269333,0 1.493333,0.57867 1.493333,1.29733 v 2.476 c 0,0.71867 -0.205333,1.26934 -1.493333,1.26934 h -2.26 z"
         style="fill:none;stroke:#effafe;stroke-width:1;stroke-linecap:butt;stroke-linejoin:miter;stroke-miterlimit:10;stroke-dasharray:none;stroke-opacity:1"
         id="path3908"
         inkscape:connector-curvature="0" />
      <path
         d="m 74.509731,305.10986 h -3.146666 v -5.04266 h 3.146666 v 0.0933 h -3.053333 v 2.344 h 2.297333 v 0.0933 h -2.297333 v 2.42 h 3.053333 z"
         style="fill:#effafe;fill-opacity:1;fill-rule:nonzero;stroke:none;stroke-width:1.33333325"
         id="path3912"
         inkscape:connector-curvature="0" />
      <path
         d="m 74.509731,305.10986 h -3.146666 v -5.04266 h 3.146666 v 0.0933 h -3.053333 v 2.344 h 2.297333 v 0.0933 h -2.297333 v 2.42 h 3.053333 z"
         style="fill:none;stroke:#effafe;stroke-width:1;stroke-linecap:butt;stroke-linejoin:miter;stroke-miterlimit:10;stroke-dasharray:none;stroke-opacity:1"
         id="path3916"
         inkscape:connector-curvature="0" />
      <path
         d="m 78.845731,300.06693 h 2.978667 v 0.0933 h -2.885333 v 2.67067 h 2.129333 v 0.0947 h -2.129333 v 2.184 h -0.09333 z"
         style="fill:#effafe;fill-opacity:1;fill-rule:nonzero;stroke:none;stroke-width:1.33333325"
         id="path3920"
         inkscape:connector-curvature="0" />
      <path
         d="m 78.845731,300.06693 h 2.978667 v 0.0933 h -2.885333 v 2.67067 h 2.129333 v 0.0947 h -2.129333 v 2.184 h -0.09333 z"
         style="fill:none;stroke:#effafe;stroke-width:1;stroke-linecap:butt;stroke-linejoin:miter;stroke-miterlimit:10;stroke-dasharray:none;stroke-opacity:1"
         id="path3924"
         inkscape:connector-curvature="0" />
      <path
         d="m 86.158798,300.16066 v 2.69867 h 2.036 c 0.774666,0 0.970666,-0.38267 0.970666,-1.07333 v -0.65334 c 0,-0.58 -0.308,-0.972 -0.970666,-0.972 z m -0.09333,4.94934 v -5.04267 h 2.129333 c 0.728,0 1.064,0.44933 1.064,1.06533 v 0.644 c 0,0.56934 -0.112,0.94267 -0.56,1.08267 h 0.102666 c 0.766667,0 1.130667,0.34533 1.130667,0.99867 v 1.252 h -0.09333 v -1.252 c 0,-0.61467 -0.326667,-0.91467 -1.037334,-0.91467 H 86.158798 V 305.11 Z"
         style="fill:#effafe;fill-opacity:1;fill-rule:nonzero;stroke:none;stroke-width:1.33333325"
         id="path3928"
         inkscape:connector-curvature="0" />
      <path
         d="m 86.158798,300.16066 v 2.69867 h 2.036 c 0.774666,0 0.970666,-0.38267 0.970666,-1.07333 v -0.65334 c 0,-0.58 -0.308,-0.972 -0.970666,-0.972 z m -0.09333,4.94934 v -5.04267 h 2.129333 c 0.728,0 1.064,0.44933 1.064,1.06533 v 0.644 c 0,0.56934 -0.112,0.94267 -0.56,1.08267 h 0.102666 c 0.766667,0 1.130667,0.34533 1.130667,0.99867 v 1.252 h -0.09333 v -1.252 c 0,-0.61467 -0.326667,-0.91467 -1.037334,-0.91467 H 86.158798 V 305.11 Z"
         style="fill:none;stroke:#effafe;stroke-width:1;stroke-linecap:butt;stroke-linejoin:miter;stroke-miterlimit:10;stroke-dasharray:none;stroke-opacity:1"
         id="path3932"
         inkscape:connector-curvature="0" />
      <path
         d="m 97.484398,305.10986 h -3.146667 v -5.04266 h 3.146667 v 0.0933 h -3.053334 v 2.344 h 2.297334 v 0.0933 h -2.297334 v 2.42 h 3.053334 z"
         style="fill:#effafe;fill-opacity:1;fill-rule:nonzero;stroke:none;stroke-width:1.33333325"
         id="path3936"
         inkscape:connector-curvature="0" />
      <path
         d="m 97.484398,305.10986 h -3.146667 v -5.04266 h 3.146667 v 0.0933 h -3.053334 v 2.344 h 2.297334 v 0.0933 h -2.297334 v 2.42 h 3.053334 z"
         style="fill:none;stroke:#effafe;stroke-width:1;stroke-linecap:butt;stroke-linejoin:miter;stroke-miterlimit:10;stroke-dasharray:none;stroke-opacity:1"
         id="path3940"
         inkscape:connector-curvature="0" />
      <path
         d="m 104.96746,305.10986 h -3.14666 v -5.04266 h 3.14666 v 0.0933 h -3.05333 v 2.344 h 2.29733 v 0.0933 h -2.29733 v 2.42 h 3.05333 z"
         style="fill:#effafe;fill-opacity:1;fill-rule:nonzero;stroke:none;stroke-width:1.33333325"
         id="path3944"
         inkscape:connector-curvature="0" />
      <path
         d="m 104.96746,305.10986 h -3.14666 v -5.04266 h 3.14666 v 0.0933 h -3.05333 v 2.344 h 2.29733 v 0.0933 h -2.29733 v 2.42 h 3.05333 z"
         style="fill:none;stroke:#effafe;stroke-width:1;stroke-linecap:butt;stroke-linejoin:miter;stroke-miterlimit:10;stroke-dasharray:none;stroke-opacity:1"
         id="path3948"
         inkscape:connector-curvature="0" />
      <path
         d="m 109.42573,304.382 c -0.0933,0.112 -0.132,0.168 -0.132,0.28933 v 0.13067 c 0,0.17733 0.0947,0.216 0.19733,0.216 h 3.14667 v 0.092 h -3.14667 c -0.20533,0 -0.28933,-0.092 -0.28933,-0.308 v -0.14934 c 0,-0.14 0.0653,-0.23333 0.15733,-0.34533 l 2.73734,-3.51067 c 0.0933,-0.112 0.13066,-0.168 0.13066,-0.28933 v -0.132 c 0,-0.17733 -0.0933,-0.21467 -0.196,-0.21467 h -2.84933 v -0.0933 h 2.84933 c 0.204,0 0.28934,0.0933 0.28934,0.308 v 0.14933 c 0,0.14 -0.0653,0.23334 -0.15867,0.34534 z"
         style="fill:#effafe;fill-opacity:1;fill-rule:nonzero;stroke:none;stroke-width:1.33333325"
         id="path3952"
         inkscape:connector-curvature="0" />
      <path
         d="m 109.42573,304.382 c -0.0933,0.112 -0.132,0.168 -0.132,0.28933 v 0.13067 c 0,0.17733 0.0947,0.216 0.19733,0.216 h 3.14667 v 0.092 h -3.14667 c -0.20533,0 -0.28933,-0.092 -0.28933,-0.308 v -0.14934 c 0,-0.14 0.0653,-0.23333 0.15733,-0.34533 l 2.73734,-3.51067 c 0.0933,-0.112 0.13066,-0.168 0.13066,-0.28933 v -0.132 c 0,-0.17733 -0.0933,-0.21467 -0.196,-0.21467 h -2.84933 v -0.0933 h 2.84933 c 0.204,0 0.28934,0.0933 0.28934,0.308 v 0.14933 c 0,0.14 -0.0653,0.23334 -0.15867,0.34534 z"
         style="fill:none;stroke:#effafe;stroke-width:1;stroke-linecap:butt;stroke-linejoin:miter;stroke-miterlimit:10;stroke-dasharray:none;stroke-opacity:1"
         id="path3956"
         inkscape:connector-curvature="0" />
      <path
         d="m 120.10546,305.10986 h -3.14666 v -5.04266 h 3.14666 v 0.0933 h -3.05333 v 2.344 h 2.29733 v 0.0933 h -2.29733 v 2.42 h 3.05333 z"
         style="fill:#effafe;fill-opacity:1;fill-rule:nonzero;stroke:none;stroke-width:1.33333325"
         id="path3960"
         inkscape:connector-curvature="0" />
      <path
         d="m 120.10546,305.10986 h -3.14666 v -5.04266 h 3.14666 v 0.0933 h -3.05333 v 2.344 h 2.29733 v 0.0933 h -2.29733 v 2.42 h 3.05333 z"
         style="fill:none;stroke:#effafe;stroke-width:1;stroke-linecap:butt;stroke-linejoin:miter;stroke-miterlimit:10;stroke-dasharray:none;stroke-opacity:1"
         id="path3964"
         inkscape:connector-curvature="0" />
      <path
         id="path3966"
         style="fill:#effafe;fill-opacity:1;fill-rule:nonzero;stroke:#effafe;stroke-width:1;stroke-linecap:butt;stroke-linejoin:miter;stroke-miterlimit:10;stroke-dasharray:none;stroke-opacity:1"
         d="m 124.488,304.22266 h 0.0933 v 0.88667 h -0.0933 z"
         inkscape:connector-curvature="0" />
      <path
         d="m 129.16933,300.06693 h 2.97867 v 0.0933 h -2.88534 v 2.67067 h 2.12934 v 0.0947 h -2.12934 v 2.184 h -0.0933 z"
         style="fill:#effafe;fill-opacity:1;fill-rule:nonzero;stroke:none;stroke-width:1.33333325"
         id="path3970"
         inkscape:connector-curvature="0" />
      <path
         d="m 129.16933,300.06693 h 2.97867 v 0.0933 h -2.88534 v 2.67067 h 2.12934 v 0.0947 h -2.12934 v 2.184 h -0.0933 z"
         style="fill:none;stroke:#effafe;stroke-width:1;stroke-linecap:butt;stroke-linejoin:miter;stroke-miterlimit:10;stroke-dasharray:none;stroke-opacity:1"
         id="path3974"
         inkscape:connector-curvature="0" />
      <path
         d="m 136.21746,305.10986 v -0.092 h 1.44667 v -4.85733 h -1.44667 v -0.0933 h 2.96934 v 0.0933 h -1.42934 v 4.85733 h 1.42934 v 0.092 z"
         style="fill:#effafe;fill-opacity:1;fill-rule:nonzero;stroke:none;stroke-width:1.33333325"
         id="path3978"
         inkscape:connector-curvature="0" />
      <path
         d="m 136.21746,305.10986 v -0.092 h 1.44667 v -4.85733 h -1.44667 v -0.0933 h 2.96934 v 0.0933 h -1.42934 v 4.85733 h 1.42934 v 0.092 z"
         style="fill:none;stroke:#effafe;stroke-width:1;stroke-linecap:butt;stroke-linejoin:miter;stroke-miterlimit:10;stroke-dasharray:none;stroke-opacity:1"
         id="path3982"
         inkscape:connector-curvature="0" />
    </g>
  </g>
</svg>
