<?xml version="1.0" encoding="UTF-8" standalone="no"?>
<!-- Created with Inkscape (http://www.inkscape.org/) -->

<svg
   xmlns:dc="http://purl.org/dc/elements/1.1/"
   xmlns:cc="http://creativecommons.org/ns#"
   xmlns:rdf="http://www.w3.org/1999/02/22-rdf-syntax-ns#"
   xmlns:svg="http://www.w3.org/2000/svg"
   xmlns="http://www.w3.org/2000/svg"
   xmlns:sodipodi="http://sodipodi.sourceforge.net/DTD/sodipodi-0.dtd"
   xmlns:inkscape="http://www.inkscape.org/namespaces/inkscape"
   version="1.1"
   id="svg5204"
   xml:space="preserve"
   width="128.80557"
   height="146.19215"
   viewBox="0 0 128.80558 146.19216"
   sodipodi:docname="snowflake.svg"
   inkscape:version="0.92.4 5da689c313, 2019-01-14"><metadata
     id="metadata5210"><rdf:RDF><cc:Work
         rdf:about=""><dc:format>image/svg+xml</dc:format><dc:type
           rdf:resource="http://purl.org/dc/dcmitype/StillImage" /><dc:title></dc:title></cc:Work></rdf:RDF></metadata><defs
     id="defs5208"><clipPath
       clipPathUnits="userSpaceOnUse"
       id="clipPath5220"><path
         d="M 0,113.39 H 113.39 V 0 H 0 Z"
         id="path5218"
         inkscape:connector-curvature="0" /></clipPath></defs><sodipodi:namedview
     pagecolor="#ffffff"
     bordercolor="#666666"
     borderopacity="1"
     objecttolerance="10"
     gridtolerance="10"
     guidetolerance="10"
     inkscape:pageopacity="0"
     inkscape:pageshadow="2"
     inkscape:window-width="1920"
     inkscape:window-height="1171"
     id="namedview5206"
     showgrid="false"
     fit-margin-top="0"
     fit-margin-left="0"
     fit-margin-right="0"
     fit-margin-bottom="0"
     inkscape:zoom="4.4151298"
     inkscape:cx="137.10551"
     inkscape:cy="74.724377"
     inkscape:window-x="0"
     inkscape:window-y="0"
     inkscape:window-maximized="1"
     inkscape:current-layer="g5212" /><g
     id="g5212"
     inkscape:groupmode="layer"
     inkscape:label="codefreeze_logo_2"
     transform="matrix(1.3333333,0,0,-1.3333333,-10.550688,149.51186)"><path
       inkscape:connector-curvature="0"
       id="path5224"
       style="fill:#e2f1fa;fill-opacity:1;fill-rule:nonzero;stroke:none"
       d="m 102.4631,36.3708 c -0.141,0.199 -0.335,0.379 -0.592,0.528 -0.139,0.107 -0.277,0.181 -0.414,0.239 -0.622,0.359 -1.243,0.717 -1.864,1.076 0.775,0.345 1.479,0.807 2.035,1.481 2.027,2.462 1.309,6.326 -1.57,7.784 -0.971,0.492 -2.124,0.628 -3.357,0.555 1.98,2.465 1.961,6.178 -1.305,7.903 -2.981,1.574 -5.51,-0.457 -7.894,-2.031 -0.93,-0.614 -1.859,-1.227 -2.789,-1.841 -0.027,1.282 -0.645,2.53 -2.198,3.609 -1.741,1.21 -3.321,1.115 -4.76,0.414 0.047,0.254 0.089,0.512 0.114,0.798 0.052,0.613 0.017,1.146 -0.07,1.631 1.427,-0.681 2.993,-0.76 4.716,0.438 1.552,1.078 2.17,2.324 2.198,3.605 0.839,-0.554 1.679,-1.109 2.519,-1.663 2.448,-1.616 5.092,-3.833 8.164,-2.209 3.195,1.688 3.331,5.449 1.346,7.902 1.219,-0.069 2.357,0.07 3.316,0.555 2.701,1.368 3.58,4.984 1.826,7.446 -0.586,0.823 -1.352,1.365 -2.206,1.761 3.257,1.915 6.323,4.506 4.059,8.389 -2.181,3.741 -5.781,2.589 -8.989,0.824 0.096,0.585 0.125,1.146 0.019,1.643 -0.676,3.191 -4.909,4.711 -7.595,3.415 -1.164,-0.561 -2.016,-1.628 -2.67,-2.938 -1.066,2.841 -3.958,4.659 -7.121,3.023 -3.197,-1.653 -2.736,-5.029 -2.556,-8.023 0.064,-1.056 0.127,-2.113 0.191,-3.169 -1.309,0.375 -2.805,0.324 -3.887,-0.111 -2.133,-0.858 -2.911,-2.336 -3.038,-4.026 -0.262,0.213 -0.555,0.423 -0.889,0.627 -0.327,0.199 -0.643,0.357 -0.951,0.484 0.981,0.755 1.63,1.899 1.697,3.782 0.081,2.247 -0.782,3.572 -2.083,4.298 0.919,0.459 1.838,0.918 2.756,1.378 2.757,1.378 6.127,2.655 5.952,6.374 -0.165,3.478 -3.152,5.15 -6.126,4.676 0.808,0.847 1.393,1.77 1.332,3.169 -0.125,2.859 -2.408,5.409 -5.355,5.36 -1.104,-0.018 -2.039,-0.416 -2.879,-0.995 0.103,3.628 -0.395,7.19 -4.904,7.574 -4.691,0.4 -5.542,-3.54 -5.628,-7.393 -0.595,0.478 -1.226,0.843 -1.9,0.974 -2.932,0.568 -5.958,-1.911 -6.273,-4.754 -0.15,-1.358 0.35,-2.691 1.19,-3.966 -2.988,0.492 -6.005,-1.096 -6.173,-4.646 -0.171,-3.6 2.976,-4.887 5.662,-6.23 1.014,-0.506 2.028,-1.013 3.041,-1.52 -1.286,-0.727 -2.141,-2.052 -2.08,-4.294 0.051,-1.879 0.694,-3.023 1.674,-3.78 -0.26,-0.107 -0.526,-0.236 -0.8,-0.394 -0.393,-0.226 -0.727,-0.468 -1.015,-0.722 -0.127,1.691 -0.906,3.169 -3.042,4.027 -1.062,0.426 -2.569,0.482 -3.883,0.112 0.057,0.948 0.114,1.896 0.171,2.843 0.185,3.074 0.766,6.639 -2.536,8.347 -3.112,1.609 -6.073,-0.16 -7.136,-3.001 -0.653,1.3 -1.5,2.359 -2.655,2.916 -2.676,1.29 -6.654,-0.145 -7.504,-3.198 -0.158,-0.569 -0.148,-1.209 -0.044,-1.873 -3.22,1.777 -6.849,2.955 -9.017,-0.811 -2.242,-3.894 0.798,-6.471 4.047,-8.382 -0.736,-0.34 -1.406,-0.787 -1.938,-1.431 -2.027,-2.461 -1.309,-6.325 1.57,-7.783 0.971,-0.492 2.124,-0.628 3.358,-0.555 -1.981,-2.465 -1.963,-6.178 1.304,-7.904 2.981,-1.574 5.51,0.458 7.894,2.032 0.93,0.614 1.859,1.228 2.789,1.842 0.028,-1.281 0.646,-2.528 2.197,-3.605 1.743,-1.211 3.323,-1.116 4.761,-0.415 -0.047,-0.255 -0.089,-0.516 -0.114,-0.804 -0.052,-0.612 -0.017,-1.144 0.07,-1.629 -1.427,0.681 -2.993,0.76 -4.717,-0.437 -1.552,-1.077 -2.17,-2.325 -2.197,-3.606 -0.84,0.554 -1.679,1.109 -2.519,1.663 -2.448,1.616 -5.092,3.832 -8.164,2.209 -3.195,-1.688 -3.331,-5.449 -1.347,-7.902 -1.219,0.068 -2.357,-0.07 -3.315,-0.555 -2.701,-1.368 -3.58,-4.985 -1.827,-7.447 0.587,-0.823 1.354,-1.365 2.208,-1.762 -3.258,-1.915 -6.324,-4.506 -4.06,-8.391 2.249,-3.86 6.006,-2.514 9.288,-0.657 -0.083,-0.931 10e-4,-1.859 0.409,-2.769 1.279,-2.847 4.989,-3.858 7.538,-2.042 0.837,0.596 1.485,1.476 2.004,2.512 1.071,-2.833 3.959,-4.644 7.117,-3.011 3.197,1.652 2.735,5.028 2.555,8.023 -0.066,1.112 -0.133,2.224 -0.2,3.336 1.126,-0.614 2.52,-0.697 4.24,0.12 1.878,0.892 2.593,2.275 2.721,3.838 0.282,-0.249 0.608,-0.486 0.989,-0.709 0.375,-0.218 0.735,-0.382 1.084,-0.505 -1.275,-0.893 -2.102,-2.202 -1.935,-4.265 0.153,-1.893 0.921,-3.056 2.015,-3.721 -0.903,-0.452 -1.806,-0.903 -2.709,-1.355 -2.618,-1.308 -5.843,-2.482 -5.98,-5.945 -0.143,-3.624 3.019,-5.602 6.134,-5.128 -0.798,-0.841 -1.373,-1.76 -1.312,-3.147 0.124,-2.86 2.407,-5.409 5.355,-5.361 1.104,0.018 2.038,0.416 2.879,0.995 -0.103,-3.627 0.396,-7.188 4.904,-7.572 4.804,-0.409 5.581,3.733 5.634,7.672 0.896,-0.642 1.895,-1.086 3.077,-1.094 3.103,-0.021 5.835,3.197 5.31,6.301 -0.138,0.82 -0.654,1.558 -1.288,2.234 3.09,-0.42 6.222,1.438 6.077,5.099 -0.133,3.358 -3.141,4.527 -5.69,5.802 -1.001,0.5 -2.002,1.001 -3.004,1.502 1.098,0.665 1.869,1.827 2.022,3.717 0.167,2.068 -0.664,3.378 -1.943,4.271 0.351,0.122 0.714,0.285 1.092,0.502 0.381,0.22 0.707,0.455 0.99,0.701 0.129,-1.559 0.845,-2.94 2.72,-3.83 1.72,-0.818 3.114,-0.734 4.24,-0.119 -0.061,-1.005 -0.121,-2.01 -0.181,-3.015 -0.185,-3.073 -0.767,-6.64 2.536,-8.346 3.106,-1.605 6.061,0.155 7.13,2.986 0.517,-1.026 1.161,-1.896 1.991,-2.487 2.461,-1.753 6.077,-0.879 7.446,1.825 0.472,0.933 0.585,1.892 0.513,2.857 1.665,-1.008 3.434,-1.844 5.095,-1.742 5.072,0.314 5.946,5.964 2.907,9.017" /><path
       inkscape:connector-curvature="0"
       id="path5228"
       style="fill:#2b404d;fill-opacity:1;fill-rule:nonzero;stroke:none"
       d="m 88.6418,42.3913 c -0.032,-0.024 0.055,-0.131 0.114,-0.086 0.032,0.024 -0.054,0.131 -0.114,0.086" /><path
       inkscape:connector-curvature="0"
       id="path5232"
       style="fill:#2b404d;fill-opacity:1;fill-rule:nonzero;stroke:none"
       d="m 100.5496,32.5952 c 0.201,-0.183 0.24,-0.978 -0.229,-0.945 -0.047,0.408 0.056,0.702 0.229,0.945 m -0.343,-0.172 c -0.182,-0.024 -0.16,0.464 0.114,0.258 -0.044,0.033 -0.122,-0.259 -0.114,-0.258 m -1.26,1.117 h -0.229 c 0.019,0.101 -0.024,0.154 -0.114,0.172 0.076,0.258 0.245,-0.082 0.458,0 -0.021,-0.069 -0.115,-0.085 -0.115,-0.172 m -1.374,-1.03 c -0.414,-0.026 -0.261,0.376 -0.457,0.514 -0.001,0.172 -0.313,0.11 -0.23,0.345 0.512,-0.074 0.779,-0.333 0.687,-0.859 m -0.573,-1.806 c 0.112,-0.002 0.089,-0.105 0.116,-0.171 -0.112,0.003 -0.089,0.104 -0.116,0.171 m -1.259,2.32 c 0.099,0.126 0.172,0.273 0.459,0.258 -0.1,-0.126 -0.091,-0.333 -0.459,-0.258 m -4.351,11.515 c -0.034,0.199 0.331,0.096 0.343,0.258 0.156,-0.026 0.096,-0.216 0.116,-0.344 -0.24,-0.037 -0.304,0.06 -0.459,0.086 m -1.03,-2.234 c 0.135,-0.014 0.096,-0.156 0.114,-0.258 -0.133,0.014 -0.096,0.156 -0.114,0.258 m -1.832,-1.375 c -0.407,0.125 -0.737,0.306 -1.03,0.516 -0.122,0.435 0.338,0.433 0.457,0.687 0.081,0.319 -0.196,0.369 -0.114,0.688 -0.336,-0.078 -0.352,-0.078 -0.688,0 v 0.515 c 0.385,0.088 0.179,-0.266 0.23,-0.429 0.557,-0.075 0.588,0.245 1.145,0.172 -0.139,-0.269 -0.278,-0.537 -0.457,-0.774 0.056,-0.145 0.597,0.058 0.457,0.344 0.385,-0.032 0.206,0.361 0.573,0.343 -0.012,-0.822 -0.299,-1.437 -0.573,-2.062 m -1.489,0.516 c -0.578,0.069 -0.391,1.164 0.344,1.03 0.003,-0.432 -0.057,-0.815 -0.344,-1.03 m -0.916,0.859 c -0.132,0.101 -0.13,0.303 -0.114,0.516 0.573,0.162 0.637,-0.591 0.114,-0.516 m 0,1.203 h 0.229 c 0.033,-0.139 -0.108,-0.147 -0.115,-0.258 -0.138,-0.025 -0.393,0.248 -0.114,0.258 m -0.573,-6.53 c -0.033,-0.32 -0.285,0.253 0,0.171 0.192,0.202 -0.01,-0.031 0,-0.171 m -0.343,4.897 c -0.568,-0.111 -0.161,0.509 -0.457,0.601 0.104,0.289 0.212,0.044 0.571,0.087 0.07,-0.19 0.289,-0.641 -0.114,-0.688 m -0.114,-9.109 c -0.06,-0.043 -0.146,0.063 -0.115,0.087 0.06,0.044 0.146,-0.062 0.115,-0.087 m -0.229,1.204 c 0.06,0.044 0.146,-0.063 0.114,-0.086 -0.058,-0.045 -0.146,0.061 -0.114,0.086 m -0.23,2.664 c -0.46,0.09 0.017,0.349 -0.114,0.687 0.404,-0.121 0.362,-0.471 0.114,-0.687 m 0.459,6.187 c -0.19,0.245 0.476,0.482 0,0 m 1.717,0.515 h 0.229 v -0.173 h -0.229 z m -5.267,-14.78 c -0.06,-0.043 -0.146,0.062 -0.114,0.087 0.058,0.044 0.146,-0.063 0.114,-0.087 m -0.573,15.468 c -0.385,-0.021 -0.591,0.319 -0.343,0.515 0.599,0.025 0.615,-0.282 0.343,-0.515 m -0.916,-4.211 c 0.034,0.175 0.23,0.229 0.344,0.344 0.289,-0.087 -0.091,-0.38 -0.344,-0.344 m -0.114,-0.86 c -0.106,-0.049 -0.086,0.514 0.23,0.43 0.096,-0.273 -0.101,-0.325 -0.23,-0.43 m 0,-7.303 c 0.135,-0.014 0.096,-0.157 0.114,-0.258 -0.133,0.014 -0.096,0.157 -0.114,0.258 m -0.343,13.233 c -0.042,0.547 0.418,0.717 0.687,1.031 0.356,-0.164 -0.179,-0.373 -0.114,-0.601 -0.27,-0.085 -0.191,-0.43 -0.573,-0.43 m -0.459,-8.594 c 0.107,0.294 0.322,0.505 0.229,0.946 0.097,0.274 0.152,-0.152 0.116,-0.257 0.16,-0.266 0.242,-0.982 -0.345,-0.689 m 0.345,-0.514 c 0.133,-0.014 0.096,-0.156 0.114,-0.258 -0.135,0.014 -0.097,0.156 -0.114,0.258 m -0.229,-6.274 c -0.333,0.016 -0.277,0.41 0.113,0.345 0.049,-0.181 -0.078,-0.229 -0.113,-0.345 m -0.116,-2.749 c 0.135,-0.014 0.098,-0.156 0.116,-0.258 -0.135,0.014 -0.097,0.157 -0.116,0.258 m 0.345,12.804 c 0.129,-0.017 0.063,-0.087 0,-0.087 -0.14,-0.382 -0.126,-0.88 -0.116,-1.374 -0.165,0.104 -0.173,0.327 -0.343,0.429 0.015,0.447 0.267,0.718 0.459,1.032 m -0.459,4.897 c -0.348,-0.235 0.312,0.262 0,0 m -0.229,-12.459 c 0.112,-0.002 0.089,-0.105 0.115,-0.173 -0.112,0.003 -0.089,0.106 -0.115,0.173 m -0.114,10.655 c 0.058,0.045 0.146,-0.062 0.114,-0.086 -0.059,-0.045 -0.146,0.062 -0.114,0.086 m 0,-12.374 c -0.06,-0.044 -0.146,0.062 -0.114,0.085 0.058,0.046 0.144,-0.061 0.114,-0.085 m -1.03,14.35 c -0.086,0.265 0.313,0.165 0.228,0.43 0.325,0.014 0.224,-0.291 0.688,-0.172 0.076,-0.373 -0.533,-0.232 -0.916,-0.258 m -0.116,0 c -0.059,-0.045 -0.146,0.062 -0.114,0.086 0.059,0.044 0.146,-0.062 0.114,-0.086 m -0.457,-5.585 c -0.06,-0.045 -0.146,0.062 -0.115,0.086 0.06,0.045 0.146,-0.062 0.115,-0.086 m 0.801,10.999 c 0.314,-0.002 0.272,-0.406 0.115,-0.516 -0.416,0.078 -0.07,0.253 -0.115,0.516 m 0.229,-0.86 c 0.207,-0.199 0.353,-0.769 0.114,-1.032 -0.263,0.176 -0.04,0.715 -0.114,1.032 m 0.687,-6.272 c -0.112,10e-4 -0.089,0.105 -0.114,0.172 0.112,-0.003 0.089,-0.106 0.114,-0.172 m 0.229,3.007 c 0.425,-0.069 0.18,-0.643 -0.229,-0.601 0.127,0.162 0.146,0.406 0.229,0.601 m -4.35,-4.897 c 0.034,-0.199 -0.332,-0.097 -0.344,-0.258 -0.423,0.068 -0.096,0.354 0,0.514 0.091,-0.044 0.185,-0.089 0.344,-0.085 -0.071,-0.076 -0.138,-0.154 0,-0.171 m -1.375,9.623 c -0.059,-0.044 -0.146,0.062 -0.115,0.086 0.059,0.045 0.147,-0.062 0.115,-0.086 m -1.717,-8.936 c 0.112,-0.003 0.089,-0.105 0.114,-0.173 -0.112,0.003 -0.089,0.106 -0.114,0.173 m -1.146,6.101 c 0.112,-0.003 0.089,-0.106 0.114,-0.172 -0.11,10e-4 -0.088,0.105 -0.114,0.172 m -1.718,3.522 c -0.058,-0.044 -0.146,0.063 -0.114,0.087 0.06,0.044 0.146,-0.063 0.114,-0.087 m -4.465,-5.671 c 0.134,-0.014 0.098,-0.156 0.115,-0.258 -0.134,0.014 -0.097,0.157 -0.115,0.258 m -0.686,13.577 c -0.169,0.116 -0.024,0.591 0,0.601 0.153,0.061 0.142,-0.431 0,-0.601 m -0.23,1.546 c 0.202,-0.02 0.261,-0.147 0.23,-0.343 -0.345,-0.086 -0.204,0.191 -0.23,0.343 m 0,-5.929 c -0.059,-0.044 -0.145,0.062 -0.113,0.087 0.058,0.044 0.144,-0.063 0.113,-0.087 m -0.572,-13.404 c -0.06,-0.044 -0.146,0.061 -0.114,0.085 0.059,0.045 0.146,-0.061 0.114,-0.085 m -0.229,15.81 h 0.229 v -0.171 h -0.229 z m -0.344,1.891 c -0.058,-0.045 -0.146,0.062 -0.114,0.086 0.059,0.045 0.146,-0.062 0.114,-0.086 m -0.343,0.687 c 0.112,-0.002 0.089,-0.104 0.114,-0.171 -0.111,0.002 -0.088,0.104 -0.114,0.171 m -1.489,4.984 c -0.218,0.072 -0.31,0.377 -0.114,0.516 0.319,-0.087 0.146,-0.347 0.114,-0.516 m -0.343,0.687 c -0.147,0.089 -0.296,0.905 0.114,0.86 -0.041,-0.41 -0.063,-0.642 -0.114,-0.86 m -0.459,1.891 c 0.135,-0.014 0.097,-0.157 0.115,-0.258 -0.134,0.014 -0.097,0.156 -0.115,0.258 m -0.571,6.273 c -0.285,0.013 -0.034,0.291 0,0.343 0.343,-0.056 -0.111,-0.184 0,-0.343 m -0.916,29.559 c -0.239,0.221 -0.099,0.71 0.228,0.774 0.699,0.021 0.595,-0.971 -0.228,-0.774 m 0.228,-88.507 c 0.11,0.262 -0.245,0.873 0.229,0.86 -0.109,-0.261 0.245,-0.871 -0.229,-0.86 m 0,85.5 c 0.112,-0.003 0.089,-0.106 0.115,-0.173 -0.112,0.003 -0.089,0.105 -0.115,0.173 m -0.114,-83.523 c 0.173,-0.213 0.221,-0.521 0.229,-0.859 -0.399,0.045 -0.168,0.562 -0.229,0.859 m -0.114,82.491 c 0.307,-0.101 -10e-4,-0.447 0,-0.601 -0.309,0.102 0,0.447 0,0.601 m -0.115,-26.637 c -0.32,0.002 -0.158,0.243 -0.229,0.43 -0.089,0.231 -0.329,0.508 -0.229,1.03 0.274,-0.033 -0.064,0.393 0.343,0.258 -0.001,-0.228 0.063,-0.506 -0.229,-0.516 0.3,-0.26 0.417,-0.661 0.344,-1.202 m -0.229,-52.674 c -0.022,0.123 -0.133,0.126 0,0.258 0.235,-0.388 0.071,-0.662 0,-0.258 m -0.458,-4.984 c -0.03,0.28 0.136,0.413 0.458,0.43 -0.173,-0.129 -0.035,-0.491 -0.458,-0.43 m 0.458,5.327 c -0.251,0.013 -0.247,0.217 -0.229,0.431 0.25,-0.013 0.245,-0.218 0.229,-0.431 m -1.261,0.86 c -0.08,-0.577 0.12,-0.944 0.116,-1.461 -0.205,-0.076 -0.291,-0.24 -0.687,-0.171 0.157,0.195 -0.295,0.322 0,0.343 0.025,0.277 -0.202,0.363 -0.115,0.687 0.074,0.489 0.445,0.756 0.686,1.118 0.196,-0.032 0.217,0.066 0.23,0.171 0.112,-0.002 0.089,-0.105 0.115,-0.171 0.149,0.243 0.265,0.833 0.687,0.601 -0.112,-0.318 -0.412,-0.493 -0.344,-0.945 -0.146,-0.12 -0.54,-0.052 -0.688,-0.172 m 0.573,-1.289 c -0.143,0.021 -0.115,0.171 0,0.171 0.168,-0.038 -0.01,-0.075 0,-0.171 m -0.343,1.031 c -0.009,-0.014 -0.038,-0.244 -0.114,-0.171 -0.093,0.086 0.277,0.416 0.114,0.171 m -0.457,-5.586 c -0.015,0.212 -0.018,0.414 0.114,0.516 0.174,-10e-4 0.25,-0.637 -0.114,-0.516 m 0.227,-0.687 c -0.058,-0.045 -0.145,0.062 -0.113,0.086 0.059,0.045 0.146,-0.062 0.113,-0.086 m -0.343,3.953 c -0.248,-0.015 -0.051,0.304 -0.114,0.43 0.359,-0.06 0.15,-0.23 0.114,-0.43 m -0.801,0.515 c -0.19,0.116 -0.394,0.22 -0.458,0.431 -0.308,0.058 -0.221,-0.178 -0.344,-0.258 -0.26,0.024 -0.431,-0.022 -0.457,-0.173 -0.481,0.536 0.644,0.603 1.03,0.774 -0.147,0.306 -0.258,0.312 -0.114,0.687 0.937,0.086 0.833,-1.235 0.343,-1.461 m -1.031,1.547 c 0.164,-0.114 0.164,-0.488 0,-0.602 -0.237,0.051 -0.369,0.181 -0.571,0.258 0.128,0.161 0.134,0.415 0.571,0.344 m -0.801,11.085 c 0.103,-0.068 0.259,-0.093 0.458,-0.085 0.061,-0.392 -0.23,-0.516 -0.344,-0.774 -0.417,0.062 -0.194,0.654 -0.114,0.859 m 0.344,2.062 c 0.047,-0.581 -0.368,-0.812 -0.344,-1.375 -0.157,0.32 -0.355,1.41 0.344,1.375 m -0.573,71.578 v 0.516 c 0.136,-0.099 0.405,-0.097 0.687,-0.087 0.017,-0.326 -0.331,-0.381 -0.687,-0.429 m 1.03,0.516 c 0.268,-0.022 0.066,-0.378 0,-0.43 -0.268,0.022 -0.064,0.378 0,0.43 m -0.687,-46.573 c 0.112,-0.002 0.089,-0.107 0.116,-0.171 -0.112,0.002 -0.089,0.104 -0.116,0.171 m 0.344,-3.18 c -0.134,0.014 -0.096,0.158 -0.114,0.258 0.135,-0.014 0.096,-0.156 0.114,-0.258 m 0.229,-20.107 c -0.06,-0.044 -0.146,0.063 -0.114,0.087 0.059,0.044 0.146,-0.063 0.114,-0.087 m -0.343,21.224 c -0.357,0.232 -0.579,1.105 0.343,0.945 0.262,-0.376 -0.079,-0.714 -0.343,-0.945 m 0.457,1.376 c -0.326,0.126 -0.813,0.912 0.115,0.772 0.033,-0.39 0.169,-0.514 -0.115,-0.772 m 0.345,-28.356 c -0.112,10e-4 -0.089,0.104 -0.116,0.17 0.112,-10e-4 0.089,-0.104 0.116,-0.17 m 0.916,1.03 c -0.07,-0.437 -0.816,-0.171 -1.146,-0.086 0.061,0.07 0.119,0.14 0.114,0.258 0.371,-0.037 0.991,0.114 1.032,-0.172 m -0.459,73.983 c 0.311,-0.077 -0.117,-0.299 -0.114,-0.429 -0.347,0.105 0.081,0.328 0.114,0.429 m 0.229,-45.455 c -0.059,-0.044 -0.146,0.062 -0.115,0.086 0.06,0.045 0.146,-0.062 0.115,-0.086 m 0.23,-1.718 c 0.202,0.027 0.204,-0.481 -0.115,-0.344 -0.049,0.179 0.079,0.227 0.115,0.344 m 0.114,-8.335 c -0.06,-0.045 -0.146,0.062 -0.114,0.086 0.058,0.045 0.146,-0.062 0.114,-0.086 m -0.114,-26.724 c -0.112,0.003 -0.089,0.105 -0.115,0.172 v 0.258 c 0.248,0.014 0.051,-0.305 0.115,-0.43 m 0.457,31.794 c 0.033,-0.225 -0.042,-0.371 -0.343,-0.344 -0.033,0.225 -0.04,0.431 0.343,0.344 m -0.114,30.676 c 0.166,-0.038 -0.012,-0.075 0,-0.173 -0.144,0.023 -0.116,0.171 0,0.173 m 0.801,-55.768 c 0.344,-0.004 0.333,-0.61 -0.114,-0.515 -0.015,0.211 -0.018,0.415 0.114,0.515 m 0.573,44.855 c 0.032,-0.225 -0.042,-0.37 -0.344,-0.343 -0.032,0.225 0.042,0.37 0.344,0.343 m 0,33.083 c 0.301,0.199 0.433,-0.247 0.802,-0.258 0.049,-0.582 -0.167,-0.964 -0.344,-1.375 -0.417,0.061 -0.196,0.655 -0.115,0.859 -0.531,-0.054 -0.29,0.47 -0.343,0.774 m 1.259,-1.203 c 0.362,-0.223 -0.114,-0.539 -0.114,-0.774 -0.416,0.173 -0.081,0.577 0.114,0.774 m -5.267,-70.119 c -0.22,0.179 -0.727,0.143 -0.687,0.517 0.453,0.11 0.233,-0.283 0.687,-0.172 z m -0.343,-18.388 c -0.243,0.027 -0.025,0.408 0.229,0.345 0.082,-0.236 -0.228,-0.173 -0.229,-0.345 m -1.26,19.506 c -0.059,-0.044 -0.146,0.063 -0.115,0.087 0.06,0.043 0.147,-0.063 0.115,-0.087 m -0.115,-0.172 c -0.059,-0.045 -0.146,0.062 -0.114,0.086 0.06,0.044 0.146,-0.062 0.114,-0.086 m 1.261,0.259 c 0.059,0.043 0.146,-0.063 0.114,-0.087 -0.06,-0.044 -0.146,0.063 -0.114,0.087 m 0.343,-0.345 c -0.135,0.014 -0.097,0.157 -0.115,0.258 0.135,-0.014 0.097,-0.157 0.115,-0.258 m -2.175,-16.67 c -0.01,-0.235 0.19,-0.173 0,-0.343 h -0.573 c -0.143,0.265 -0.178,0.611 -0.229,0.945 0.205,-0.024 0.234,0.081 0.114,0.087 0.524,0.302 0.948,-0.204 1.259,-0.345 0.08,-0.317 -0.401,-0.214 -0.571,-0.344 m -3.092,-7.905 c -0.286,0.035 -0.007,0.333 0.228,0.257 -0.039,-0.112 -0.202,-0.135 -0.228,-0.257 m -0.687,3.953 c -0.538,0.166 0.152,0.782 -0.229,1.116 0.027,0.266 0.115,0.487 0.229,0.688 0.291,-0.096 -0.047,-0.665 0.229,-0.773 -0.196,-0.255 -0.292,-0.584 -0.229,-1.031 m -0.115,-2.493 c -0.234,-0.252 0.005,0.571 -0.229,0.602 0.028,0.266 0.116,0.487 0.229,0.688 0.344,-0.349 -0.154,-0.798 0,-1.29 m -0.114,-1.717 c 0.032,0.138 -0.109,0.147 -0.115,0.257 v 0.688 c -0.227,-0.002 -0.146,-0.235 -0.458,-0.173 v 0.344 c 0.135,0.099 0.405,0.098 0.687,0.087 0.01,-0.136 -0.055,-0.329 0.115,-0.345 -0.062,-0.068 -0.12,-0.138 -0.115,-0.258 v -0.6 c 0.084,-0.312 -0.198,-0.312 -0.114,0 m -1.374,10.568 c -0.277,0.242 0.017,0.785 0.572,0.687 0.061,-0.418 -0.456,-0.402 -0.572,-0.687 m -0.344,2.749 c -0.103,-0.237 0.235,-0.805 -0.229,-0.772 0.256,0.368 -0.178,0.748 0.229,1.031 -0.283,0.441 0.093,1.113 0.573,0.946 -0.182,-0.327 -0.661,-0.492 -0.229,-0.86 -0.195,-0.054 -0.189,-0.26 -0.344,-0.345 m 0,-4.295 c -0.257,0.037 -0.047,0.423 -0.114,0.602 0.175,-0.121 0.325,-0.446 0.114,-0.602 m -0.802,1.375 c -0.124,0.021 -0.077,0.17 -0.228,0.171 0.099,0.126 0.171,0.272 0.458,0.258 -0.117,-0.113 -0.113,-0.316 -0.23,-0.429 m 8.588,38.238 c 0.369,-0.203 -0.402,-0.348 0,0 m -0.114,-15.812 c -0.06,-0.044 -0.146,0.063 -0.114,0.087 0.059,0.044 0.146,-0.062 0.114,-0.087 m -1.03,24.404 c -0.271,0.072 0.095,0.377 0.114,0.516 0.269,-0.073 -0.095,-0.378 -0.114,-0.516 m -0.115,-0.172 c -0.059,-0.044 -0.147,0.063 -0.115,0.087 0.059,0.043 0.147,-0.064 0.115,-0.087 m -0.115,-1.116 c -0.134,0.014 -0.097,0.156 -0.115,0.258 v 0.343 c 0.257,-0.037 0.047,-0.423 0.115,-0.601 m -0.916,-4.47 c -0.263,0.069 -0.112,0.533 0.23,0.431 -0.05,-0.164 -0.247,-0.216 -0.23,-0.431 m 0.114,5.758 c -0.169,0.072 -0.245,0.216 -0.229,0.429 0.251,-0.011 0.247,-0.216 0.229,-0.429 m -1.029,-9.796 v 0.344 c 0.451,0.06 0.373,-0.362 0,-0.344 m -0.687,1.461 c -0.648,0.194 -0.047,0.81 -0.345,1.289 -0.002,0.084 -0.139,0.066 -0.228,0.087 -0.015,0.153 0.14,0.18 0.114,0.343 0.661,-0.252 1.118,-1.221 0.459,-1.719 m -0.345,-1.203 c 0.112,-0.003 0.089,-0.106 0.115,-0.172 -0.111,0.003 -0.089,0.106 -0.115,0.172 m 0,-13.92 h -0.229 v 0.172 h 0.229 z m -0.343,8.335 c 0.059,0.044 0.147,-0.062 0.115,-0.087 -0.06,-0.043 -0.146,0.063 -0.115,0.087 m 0.229,2.406 c 0.047,-0.207 -0.21,-0.187 -0.114,-0.429 -0.352,0.015 -0.24,0.462 0.114,0.429 m -0.343,-6.187 c -0.196,0.032 -0.217,-0.067 -0.23,-0.171 -0.537,0.035 0.313,0.273 0.114,0.6 0.249,0.016 0.053,-0.304 0.116,-0.429 m -0.23,-0.258 c -0.082,-0.261 0.117,-0.314 0.114,-0.516 -0.374,0.035 -0.658,0.472 -0.114,0.516 m -0.228,-8.42 c 0.111,-0.003 0.088,-0.106 0.114,-0.172 -0.111,0.002 -0.089,0.104 -0.114,0.172 m -0.687,20.623 c 0,0.227 -0.044,0.49 0.113,0.6 0.298,-0.088 0.28,-0.578 -0.113,-0.6 m 0,-7.305 c -0.326,0.115 0.088,0.382 0.113,0.515 0.176,-0.001 -0.057,-0.405 -0.113,-0.515 m -0.229,-0.43 c 0.17,-0.159 0.219,-0.408 0.229,-0.687 -0.543,-0.046 -0.313,0.486 -0.229,0.687 m -0.343,-6.874 c -0.429,0.009 -0.327,0.096 -0.688,0 -0.127,0.44 0.491,0.32 0.688,0.516 0.393,-0.049 0.066,-0.332 0,-0.516 m -0.916,7.39 c 0.428,-0.295 0.141,-0.852 -0.115,-1.117 -0.385,0.35 0.207,0.699 0.115,1.117 m -0.345,7.046 c 0.351,-0.189 -0.132,-0.55 0,0 m -0.343,-7.733 c -0.485,0.007 -0.532,0.347 -0.228,0.515 0.091,-0.045 0.185,-0.09 0.343,-0.086 0.036,-0.199 -0.018,-0.329 -0.115,-0.429 m -0.801,-6.532 c 0.134,-0.014 0.096,-0.156 0.114,-0.256 -0.135,0.014 -0.097,0.156 -0.114,0.256 m 1.717,13.148 c 0.223,0.034 0.167,-0.391 -0.114,-0.258 -0.033,0.139 0.108,0.147 0.114,0.258 m 0.458,-9.968 c -0.099,0.126 -0.172,0.272 -0.458,0.258 0.21,0.473 0.439,0.931 0.458,1.546 0.411,-0.052 0.19,-0.578 0.115,-0.772 0.102,-0.324 0.099,-0.728 0.229,-1.032 -0.203,-0.161 -0.378,-0.346 -0.344,-0.687 -0.209,0.022 -0.458,0.711 0,0.687 m -0.115,-2.406 c -0.112,0.003 -0.089,0.106 -0.114,0.172 v 0.258 c 0.248,0.015 0.052,-0.305 0.114,-0.43 m 0.23,6.187 c 0.709,-0.056 0.121,-0.729 0,-0.945 -0.094,-0.297 0.214,-0.362 0,-0.516 -0.099,0.397 -0.446,1.188 0,1.461 m 0.458,10.141 c -0.112,0.001 -0.089,0.104 -0.115,0.17 0.112,-0.001 0.089,-0.104 0.115,-0.17 m 1.603,-7.906 c -0.268,0.021 -0.066,0.377 0,0.428 0.335,-0.071 -0.149,-0.215 0,-0.428 m -0.115,5.155 c -0.251,-0.181 -0.024,-0.382 0.115,-0.516 -0.005,-0.282 -0.193,-0.428 -0.115,-0.773 h -0.572 c 0.039,0.543 -0.214,1.307 0.572,1.289 m 0.458,1.032 c 0.256,-0.064 0.056,-0.491 -0.229,-0.431 -0.098,0.275 0.18,0.266 0.229,0.431 m -2.977,-18.905 c -0.284,0.014 -0.034,0.291 0,0.344 0.285,-0.013 0.033,-0.291 0,-0.344 m -3.778,5.499 c 0.19,0.172 -0.01,0.11 0,0.345 0.344,0.132 0.344,-0.478 0,-0.345 m -0.114,1.203 c 0.11,-0.002 0.087,-0.105 0.114,-0.171 -0.112,0.002 -0.089,0.105 -0.114,0.171 m -6.07,-21.568 c 0.35,-0.189 -0.131,-0.55 0,0 m -0.458,-1.289 c -0.143,0.022 -0.115,0.171 0,0.173 0.167,-0.038 -0.011,-0.077 0,-0.173 m -1.259,9.282 c -0.329,-0.018 -0.582,0.02 -0.687,0.17 -0.008,0.372 0.868,0.288 0.687,-0.17 m -0.573,11.427 c 0.171,-0.072 0.247,-0.216 0.229,-0.429 -0.384,-0.088 -0.178,0.266 -0.229,0.429 m -3.091,-11.6 c -0.059,-0.045 -0.146,0.062 -0.115,0.086 0.059,0.045 0.147,-0.062 0.115,-0.086 m -1.03,3.007 c 0.072,0.318 0.184,0.607 0.343,0.86 0.207,-0.189 0.043,-0.831 -0.343,-0.86 m -0.459,-3.694 c -0.112,0.002 -0.089,0.105 -0.114,0.171 v 0.258 c 0.248,0.015 0.051,-0.305 0.114,-0.429 m -0.916,12.029 c 0.148,0.148 0.237,0.338 0.573,0.344 0.235,-0.138 0.265,-0.43 0.229,-0.773 -0.569,-0.084 -0.453,0.347 -0.802,0.429 m -0.571,-0.774 c 0,0.402 0.097,0.728 0.686,0.689 -0.027,-0.381 -0.252,-0.615 -0.686,-0.689 m 0,-7.99 c -0.244,0.026 -0.026,0.407 0.227,0.344 0.084,-0.235 -0.227,-0.173 -0.227,-0.344 m -0.116,9.796 c 0.336,-0.073 -0.069,-0.277 0,-0.43 -0.268,0.022 -0.066,0.378 0,0.43 m -0.573,-21.225 c 0.135,-0.013 0.098,-0.156 0.116,-0.258 -0.135,0.014 -0.097,0.157 -0.116,0.258 m -0.572,0.344 c -0.252,0.01 -0.048,0.365 -0.114,0.516 0.314,-0.003 0.272,-0.405 0.114,-0.516 m 0,12.031 c -0.111,10e-4 -0.089,0.104 -0.114,0.17 0.112,-0.002 0.089,-0.104 0.114,-0.17 m 1.145,9.108 c -0.112,0.002 -0.089,0.105 -0.114,0.171 0.112,-0.002 0.089,-0.105 0.114,-0.171 m -2.175,-12.976 c 0.111,-0.002 0.089,-0.105 0.114,-0.172 -0.111,0.003 -0.088,0.105 -0.114,0.172 m -3.664,-6.875 c -0.203,-0.026 -0.206,0.483 0.113,0.344 0.016,-0.153 -0.139,-0.181 -0.113,-0.344 m 0,-3.007 c -0.009,-0.013 -0.039,-0.242 -0.115,-0.171 -0.092,0.086 0.278,0.416 0.115,0.171 m -0.573,2.922 c 0.134,-0.014 0.097,-0.156 0.115,-0.258 -0.134,0.014 -0.097,0.156 -0.115,0.258 m -0.458,10.913 c 0.111,-0.002 0.089,-0.105 0.115,-0.171 -0.112,10e-4 -0.09,0.105 -0.115,0.171 m -0.343,-1.719 c -0.112,0.003 -0.089,0.106 -0.115,0.172 v 0.258 c 0.249,0.015 0.052,-0.304 0.115,-0.43 m -0.229,0.945 c 0.11,-0.002 0.089,-0.105 0.114,-0.171 -0.112,0.002 -0.089,0.105 -0.114,0.171 m 0,-6.1 c -0.26,0.091 -0.044,0.54 -0.114,0.774 0.23,-0.256 0.162,-0.479 0.114,-0.774 m -0.23,1.461 c 0.112,-0.003 0.089,-0.106 0.116,-0.173 -0.112,0.004 -0.089,0.107 -0.116,0.173 m -0.343,4.21 c -0.384,0.077 -0.1,0.192 0,0.343 0.343,-0.056 -0.109,-0.183 0,-0.343 m -0.573,3.952 c 0.351,-0.188 -0.132,-0.55 0,0 m -2.862,-13.49 c -0.144,0.021 -0.116,0.171 0,0.172 0.166,-0.039 -0.012,-0.076 0,-0.172 m -1.947,0.43 c -0.154,0.026 -0.095,0.215 -0.114,0.343 h 0.343 c 0.084,-0.235 -0.227,-0.172 -0.229,-0.343 m 1.489,12.889 c 0.127,0.582 -0.75,0.41 -0.687,0.945 0.112,0.002 0.089,0.105 0.114,0.172 0.58,0.062 0.867,-0.095 1.145,-0.258 0.034,-0.455 -0.163,-0.736 -0.572,-0.859 m -1.374,-0.258 c -0.095,0.1 -0.151,0.23 -0.115,0.429 0.544,0.145 0.632,-0.494 0.115,-0.429 m 16.717,6.273 c -0.175,0.12 -0.325,0.444 -0.114,0.601 0.354,-0.155 0.061,-0.263 0.114,-0.601 m 10.649,6.444 c -0.058,-0.045 -0.146,0.062 -0.114,0.086 0.058,0.045 0.146,-0.062 0.114,-0.086 m -0.229,1.203 c 0.135,-0.014 0.097,-0.156 0.115,-0.258 -0.135,0.014 -0.097,0.158 -0.115,0.258 m -0.23,1.719 c 0.215,-0.097 0.244,-0.333 0.459,-0.43 -0.175,-0.31 0.227,-0.669 -0.343,-0.773 0.098,0.625 -0.306,0.696 -0.116,1.203 m -0.114,0.516 c 0.385,0.087 0.179,-0.268 0.23,-0.43 -0.252,0.012 -0.246,0.216 -0.23,0.43 m -0.459,-1.633 c 0.114,-0.002 0.089,-0.105 0.116,-0.173 -0.112,0.003 -0.089,0.107 -0.116,0.173 m -0.227,1.546 c 0.347,-0.101 -0.124,-0.456 0,0 m -0.23,-1.288 c -0.357,0.192 0.226,0.396 0.23,0.601 0.389,-0.215 -0.24,-0.386 -0.23,-0.601 m 3.894,6.53 c -0.083,0.107 -0.119,0.189 0,0.086 0.115,-0.1 0.09,-0.204 0,-0.086 m -3.894,-0.859 c -0.058,-0.044 -0.146,0.061 -0.114,0.085 0.059,0.045 0.146,-0.061 0.114,-0.085 m -0.457,4.21 c -0.003,0.375 0.197,0.014 0.114,-0.171 -0.015,-0.154 0.14,-0.182 0.114,-0.344 -0.414,-0.082 -0.16,0.338 -0.228,0.515 m 0.114,-4.038 c -0.06,-0.045 -0.146,0.062 -0.114,0.086 0.058,0.045 0.146,-0.063 0.114,-0.086 m 0,0.945 c -0.038,-0.201 -0.137,-0.355 -0.229,-0.516 -0.245,0.08 -0.156,0.625 0.229,0.516 m -0.459,1.804 c -0.058,-0.045 -0.146,0.062 -0.114,0.086 0.06,0.045 0.146,-0.062 0.114,-0.086 m -3.434,-3.952 c 0.111,-0.003 0.089,-0.106 0.114,-0.172 -0.111,0.003 -0.088,0.105 -0.114,0.172 m -0.229,19.591 c 0.111,-0.003 0.088,-0.106 0.114,-0.172 -0.111,0.003 -0.089,0.106 -0.114,0.172 m -0.458,-7.82 c -0.048,0.181 0.078,0.228 0.114,0.345 0.203,0.026 0.205,-0.482 -0.114,-0.345 m 0,1.118 c 0.268,-0.023 0.065,-0.377 0,-0.429 -0.268,0.021 -0.066,0.377 0,0.429 m 0.114,8.078 c 0.07,-0.077 0.139,-0.154 0,-0.173 -0.143,0.022 -0.115,0.171 0,0.173 m -2.519,-18.906 c -0.301,-0.025 -0.09,0.335 -0.458,0.26 -0.116,0.258 0.255,0.151 0.458,0.17 z m -1.03,14.952 c -0.048,0.179 0.079,0.227 0.114,0.344 0.202,0.027 0.205,-0.481 -0.114,-0.344 m -1.26,5.327 c -0.186,-0.014 -0.23,0.563 0.115,0.431 0.036,-0.2 -0.019,-0.331 -0.115,-0.431 m -1.259,-14.435 c 0.111,-0.002 0.089,-0.105 0.114,-0.172 -0.11,0.002 -0.089,0.105 -0.114,0.172 m -4.58,-8.851 c -0.06,-0.044 -0.146,0.063 -0.116,0.087 0.061,0.044 0.148,-0.062 0.116,-0.087 m 1.145,23.116 c -0.166,0.62 -0.168,1.363 -0.344,1.975 0.662,-0.18 0.044,-0.796 0.572,-1.03 -0.051,-0.336 -0.086,-0.681 -0.228,-0.945 m -0.229,2.662 c 0.321,-0.086 -0.032,-0.364 0,-0.515 -0.323,0.086 0.032,0.366 0,0.515 m -3.664,-2.406 c -0.009,-0.012 -0.039,-0.242 -0.116,-0.171 -0.091,0.086 0.279,0.417 0.116,0.171 m -1.603,-8.936 c -0.185,0.085 -0.265,0.23 -0.115,0.344 0.333,-0.075 0.129,-0.128 0.115,-0.344 m -2.748,-4.726 c -0.06,-0.044 -0.146,0.062 -0.115,0.087 0.059,0.044 0.147,-0.063 0.115,-0.087 m 0.687,10.311 c 0.133,-0.013 0.097,-0.156 0.114,-0.257 -0.134,0.014 -0.096,0.157 -0.114,0.257 m -2.749,-3.35 c -0.059,-0.045 -0.145,0.062 -0.114,0.085 0.059,0.045 0.146,-0.062 0.114,-0.085 m -0.343,1.804 c 0.414,-0.428 -0.242,-0.558 0,0 m -3.893,0.602 c -0.203,-0.028 -0.204,0.482 0.115,0.343 0.048,-0.179 -0.079,-0.227 -0.115,-0.343 m 9.619,4.209 c -0.018,0.215 0.179,0.267 0.228,0.431 0.106,0.05 0.087,-0.514 -0.228,-0.431 m 27.364,-5.412 c -0.058,-0.044 -0.146,0.061 -0.114,0.085 0.06,0.045 0.146,-0.061 0.114,-0.085 m -4.694,9.279 c 0.112,-10e-4 0.089,-0.104 0.115,-0.171 -0.111,0.002 -0.088,0.105 -0.115,0.171 m -1.144,4.039 c -0.176,0.001 -0.251,0.638 0.114,0.516 0.015,-0.211 0.018,-0.415 -0.114,-0.516 m 20.152,1.203 c 0.143,-0.086 0.486,-0.624 -0.115,-0.516 -0.014,0.212 -0.017,0.414 0.115,0.516 m 0.916,0 c 0.037,-0.2 -0.019,-0.329 -0.115,-0.43 -0.228,0.002 -0.145,0.236 -0.458,0.172 0.069,0.178 0.177,0.326 0.573,0.258 m -3.549,-9.366 c 0.218,-0.035 0.491,-0.03 0.457,-0.258 h -0.573 c -0.032,0.139 0.109,0.148 0.116,0.258 m 11.106,6.359 c 0.06,0.044 0.146,-0.062 0.114,-0.087 -0.058,-0.044 -0.146,0.063 -0.114,0.087 m -10.535,-14.436 c 0.403,-0.315 -0.433,-0.421 0,0 m 9.847,-12.717 c 0.269,-0.023 0.067,-0.377 0,-0.431 -0.268,0.023 -0.065,0.378 0,0.431 m 0.688,1.804 c 0.152,-0.094 0.392,-0.555 0.114,-0.687 -0.47,0.071 -0.316,0.505 -0.114,0.687 m 0.344,0.429 c -0.112,0.003 -0.089,0.106 -0.116,0.172 0.112,-0.001 0.089,-0.104 0.116,-0.172 m 0.802,-0.687 c -0.163,0.146 0.056,0.4 -0.115,0.687 0.434,0.058 0.214,-0.602 0.115,-0.687 m 8.129,9.968 c -0.348,-0.235 0.313,0.262 0,0 m 0.686,-7.648 c 0.06,0.044 0.146,-0.062 0.115,-0.085 -0.059,-0.045 -0.145,0.061 -0.115,0.085 m 3.435,-1.288 c 0.145,-0.022 0.116,-0.172 0,-0.173 -0.166,0.038 0.012,0.076 0,0.173 m 0.916,5.413 c 0.398,0.069 0.441,-0.128 0.802,-0.086 0.108,-0.454 -0.349,-0.483 -0.573,-0.688 -0.37,0.097 -0.399,0.502 -0.229,0.774 m 0,8.678 c 0.06,0.045 0.146,-0.061 0.116,-0.085 -0.06,-0.044 -0.147,0.062 -0.116,0.085 m 4.466,-0.687 c 0.307,-0.138 0.171,-0.272 0,-0.429 -0.267,0.022 -0.066,0.377 0,0.429 m 0.116,2.836 c 0.058,0.044 0.146,-0.063 0.114,-0.086 -0.06,-0.044 -0.146,0.063 -0.114,0.086 m 5.724,-9.281 c 0.342,-0.058 0.384,-0.342 0.343,-0.687 -0.342,0.058 -0.384,0.343 -0.343,0.687 m -5.724,-6.186 c 0.344,0.087 0.202,-0.191 0.228,-0.344 -0.202,0.022 -0.261,0.148 -0.228,0.344 m 2.976,-2.664 c 0.06,0.045 0.146,-0.062 0.115,-0.086 -0.06,-0.045 -0.147,0.062 -0.115,0.086 m 1.03,-2.148 c -0.05,-0.105 -0.146,-0.177 -0.343,-0.171 0.05,0.105 0.147,0.176 0.343,0.171 m 0.229,1.804 c 0.131,-0.016 0.064,-0.085 0,-0.085 -0.13,0.016 -0.063,0.085 0,0.085 m -7.328,-15.037 c 0.525,0.079 0.599,-0.181 0.573,-0.515 -0.275,-0.036 -0.249,0.156 -0.573,0.085 z m 0.916,1.546 c -0.112,0.003 -0.089,0.106 -0.114,0.172 0.112,-10e-4 0.089,-0.104 0.114,-0.172 m 0.115,-4.639 c -0.059,-0.045 -0.146,0.061 -0.115,0.085 0.06,0.044 0.146,-0.061 0.115,-0.085 m -0.916,0 c 0.423,-0.261 -0.348,-0.29 0,0 m 4.237,4.726 c 0.143,-0.022 0.115,-0.172 0,-0.172 -0.167,0.037 0.011,0.075 0,0.172 m 4.808,-10.57 v -0.172 c -0.097,0.017 -0.108,-0.033 -0.113,-0.086 -0.222,-0.033 -0.168,0.393 0.113,0.258 m 5.039,-6.272 c 0.059,0.044 0.146,-0.062 0.114,-0.086 -0.06,-0.045 -0.146,0.062 -0.114,0.086 m -0.688,-3.954 c 0.061,0.07 0.12,0.14 0.115,0.259 0.097,-0.033 0.147,-0.069 0.174,-0.109 0.194,0.195 0.369,0.415 0.513,0.665 0.161,0.28 0.275,0.573 0.346,0.871 -0.086,0.037 -0.166,0.079 -0.232,0.12 v 0.6 c 0.112,0.06 0.204,0.183 0.307,0.294 -0.085,1.021 -0.651,1.985 -1.606,2.535 l -5.844,3.374 3.505,0.94 c 0.864,0.231 1.551,0.789 1.966,1.508 0.449,0.779 0.576,1.738 0.255,2.675 -0.562,1.634 -2.389,2.472 -4.058,2.025 l -9.309,-2.495 7.514,4.959 c 0.435,0.288 0.775,0.66 1.017,1.081 0.668,1.156 0.591,2.673 -0.387,3.778 -1.082,1.222 -2.949,1.366 -4.311,0.467 l -0.81,-0.534 c 0.368,-0.133 0.228,-0.901 -0.032,-1.014 -0.478,0.197 -0.313,0.652 -0.077,0.942 l -9.376,-6.189 -0.283,0.165 1.757,1.815 c 0.189,0.196 0.348,0.409 0.479,0.636 0.723,1.252 0.534,2.886 -0.555,3.943 -0.179,0.172 -0.373,0.317 -0.577,0.44 -0.084,-0.194 -0.162,-0.394 -0.299,-0.549 -0.149,0.148 -0.105,0.45 0.106,0.659 -1.237,0.636 -2.791,0.423 -3.807,-0.628 l -2.88,-2.982 -5.579,3.215 h 5.607 c 0.015,0.006 0.029,0.011 0.044,0.017 3.23,2.846 1.25,6.455 -1.569,6.455 h -4.082 l 5.579,3.216 2.791,-2.888 c 1.132,-1.171 2.98,-1.432 4.299,-0.476 1.407,1.021 1.72,2.865 0.922,4.249 -0.131,0.227 -0.29,0.439 -0.479,0.636 l -1.757,1.815 0.283,0.164 10.41,-6.873 c 1.491,-0.984 3.499,-0.573 4.483,0.917 0.683,1.034 0.691,2.313 0.136,3.33 h -0.08 v 0.143 c -0.238,0.392 -0.562,0.74 -0.973,1.01 l -4.163,2.749 c -0.024,-0.102 -0.097,-0.178 -0.246,-0.121 -0.02,0.11 -0.011,0.198 0.016,0.272 l -3.121,2.061 9.298,-2.492 c 1.667,-0.447 3.495,0.381 4.064,2.01 0.328,0.938 0.201,1.906 -0.25,2.687 -0.415,0.717 -1.102,1.277 -1.966,1.507 l -3.505,0.94 5.77,3.33 c 1.337,0.772 2.028,2.379 1.537,3.843 -0.675,2.014 -2.959,2.808 -4.697,1.803 l -5.845,-3.374 1.331,4.976 c -0.001,0.016 -0.003,0.032 -0.005,0.048 -1.912,3.859 -5.908,2.878 -6.638,0.157 l -2.535,-9.473 -0.53,8.806 c -0.105,1.749 -1.509,3.238 -3.261,3.224 -1.869,-0.014 -3.32,-1.587 -3.21,-3.431 l 0.747,-12.448 -0.283,-0.163 -1.117,3.899 c -0.012,0.016 -0.023,0.031 -0.035,0.047 -3.626,2.297 -6.543,-0.59 -5.766,-3.298 l 1.139,-3.985 -5.608,-3.231 2.838,4.918 c 0.003,0.019 0.006,0.037 0.009,0.056 -0.914,4.189 -4.988,4.265 -6.391,1.831 l -2.052,-3.549 v 6.428 l 5.507,1.376 c 0.016,0.011 0.031,0.022 0.046,0.033 2.421,3.557 -0.379,6.55 -3.103,5.875 l -2.45,-0.612 v 0.327 l 11.156,5.577 c 1.422,0.711 2.089,2.327 1.657,3.802 -0.215,-0.241 -0.74,-0.248 -0.838,-0.576 -0.534,0.009 -0.708,0.42 -0.458,0.773 h 0.687 c 0.032,-0.138 -0.108,-0.148 -0.114,-0.257 0.42,-0.027 0.302,0.35 0.592,0.422 -0.026,0.06 -0.049,0.12 -0.078,0.178 -0.8,1.596 -2.738,2.248 -4.343,1.448 l -1.911,-0.955 c -0.049,-0.123 -0.169,-0.194 -0.215,-0.32 -0.073,0.025 -0.108,0.084 -0.119,0.153 l -5.809,-2.906 8.013,8.013 c 0.008,0.018 0.016,0.035 0.024,0.053 0.255,4.288 -3.686,5.435 -5.678,3.444 l -2.566,-2.566 v 0.781 c -0.086,-0.201 -0.314,-0.378 -0.621,-0.355 -0.001,0.372 0.229,0.573 0.344,0.859 0.142,-0.028 0.231,-0.096 0.277,-0.181 v 6.977 c -0.051,0.13 -0.099,0.253 -0.15,0.384 -2.824,3.022 -6.322,1.059 -6.322,-1.715 v -6.75 l -3.644,3.644 c -0.014,0.014 -0.034,0.023 -0.054,0.024 -0.81,0.048 -1.508,-0.054 -2.093,-0.264 -0.006,-0.216 0.081,-0.407 -0.036,-0.572 -0.609,0.307 -0.087,-0.574 -0.802,-0.602 0.107,0.127 0.228,0.597 0.045,0.785 -1.799,-1.168 -1.985,-3.597 -0.557,-5.025 l 6.934,-6.934 -7.89,3.945 c -1.567,0.783 -3.559,0.312 -4.424,-1.212 -0.922,-1.626 -0.286,-3.67 1.366,-4.497 l 11.155,-5.575 v -0.327 l -2.451,0.613 c -2.722,0.678 -5.521,-2.313 -3.108,-5.873 0.016,-0.011 0.031,-0.022 0.047,-0.033 l 5.512,-1.379 v -6.428 l -2.008,3.477 c -0.773,1.338 -2.382,2.028 -3.847,1.536 -2.013,-0.678 -2.804,-2.959 -1.801,-4.698 l 2.06,-3.569 -5.608,3.231 1.139,3.985 c 0.568,1.975 -0.835,4.044 -3.039,4.128 0.16,-0.109 0.098,-0.385 0.177,-0.554 -0.381,-0.023 -0.195,0.379 -0.308,0.557 -0.787,0.001 -1.669,-0.247 -2.597,-0.839 -0.012,-0.016 -0.024,-0.031 -0.035,-0.047 l -1.116,-3.894 -0.283,0.164 0.747,12.448 c 0.058,0.965 -0.315,1.854 -0.949,2.486 -0.213,-0.105 -0.234,-0.562 -0.726,-0.478 v 0.945 c 0.026,0.011 0.049,0.024 0.074,0.036 -0.529,0.308 -1.152,0.476 -1.827,0.436 -1.665,-0.099 -2.942,-1.539 -3.042,-3.204 l -0.53,-8.82 -2.536,9.473 c -0.73,2.721 -4.726,3.702 -6.638,-0.157 -0.007,-0.015 -0.009,-0.032 -0.005,-0.048 l 0.074,-0.276 c 0.079,0.059 0.152,0.108 0.004,-0.016 l 0.668,-2.494 c 0.007,0.001 0.011,0 0.018,0.001 -0.005,-0.003 -0.01,-0.007 -0.016,-0.01 l 0.584,-2.181 -5.686,3.283 c -1.518,0.876 -3.535,0.524 -4.489,-0.946 -1.017,-1.568 -0.503,-3.645 1.095,-4.567 l 5.844,-3.373 -3.505,-0.94 c -0.863,-0.23 -1.551,-0.789 -1.965,-1.506 -0.451,-0.781 -0.578,-1.75 -0.251,-2.687 0.569,-1.629 2.397,-2.457 4.064,-2.011 l 9.298,2.493 -7.513,-4.961 c -0.435,-0.286 -0.775,-0.66 -1.018,-1.079 -0.668,-1.155 -0.59,-2.675 0.389,-3.779 1.083,-1.222 2.95,-1.365 4.312,-0.465 l 10.292,6.795 0.283,-0.163 -1.757,-1.815 c -0.189,-0.196 -0.347,-0.408 -0.479,-0.636 -0.798,-1.384 -0.484,-3.229 0.923,-4.25 1.318,-0.956 3.167,-0.695 4.298,0.477 l 0.893,0.923 c 0.032,0.109 0.1,0.191 0.223,0.231 l 1.675,1.734 5.579,-3.218 h -3.62 c -0.019,-0.165 -0.078,-0.301 -0.332,-0.292 0.007,0.105 0.013,0.211 0.053,0.292 h -1.707 c -0.015,-0.006 -0.03,-0.011 -0.044,-0.017 -3.231,-2.846 -1.25,-6.455 1.568,-6.455 h 1.477 c -0.212,0.046 0.043,0.315 0.142,0.337 0.027,0.152 -0.115,0.431 0.229,0.344 0.183,-0.291 -0.485,-0.367 -0.114,-0.516 -0.027,-0.091 -0.213,-0.063 -0.225,-0.165 h 2.573 l -5.579,-3.216 -2.879,2.981 c -1.245,1.285 -3.291,1.317 -4.578,0.078 -1.088,-1.055 -1.278,-2.689 -0.555,-3.943 0.132,-0.226 0.29,-0.438 0.479,-0.636 l 1.757,-1.815 -0.283,-0.163 -10.409,6.873 c -1.492,0.982 -3.5,0.572 -4.484,-0.918 -0.699,-1.056 -0.695,-2.375 -0.1,-3.404 0.241,-0.42 0.583,-0.793 1.018,-1.081 l 7.513,-4.959 -9.3,2.493 c -1.669,0.447 -3.497,-0.384 -4.064,-2.016 -0.325,-0.936 -0.198,-1.901 0.253,-2.682 0.414,-0.718 1.102,-1.276 1.965,-1.508 l 3.505,-0.94 -5.762,-3.326 c -1.34,-0.773 -2.034,-2.382 -1.544,-3.849 0.673,-2.015 2.958,-2.809 4.696,-1.804 l 5.846,3.375 -0.939,-3.505 c -0.288,-1.075 0,-2.167 0.675,-2.95 0.012,0.007 0.015,0.007 0.003,-0.005 0.409,-0.473 0.959,-0.833 1.61,-1.007 1.725,-0.464 3.5,0.563 3.962,2.288 l 2.536,9.471 0.483,-8.033 c 0.104,-0.636 0.216,-1.278 0.27,-1.931 0.523,-1.354 1.924,-2.247 3.465,-2.035 1.704,0.234 2.875,1.853 2.772,3.57 l -0.737,12.278 0.283,0.162 0.644,-2.249 c 0.483,-1.685 2.177,-2.835 3.886,-2.442 1.822,0.419 2.898,2.269 2.388,4.044 l -1.139,3.985 5.608,3.229 -1.967,-3.407 c -0.855,-1.481 -0.549,-3.44 0.849,-4.424 0.573,-0.402 1.221,-0.59 1.857,-0.59 1.118,0 2.206,0.581 2.806,1.618 l 2.051,3.551 v -3.325 c 0.129,0.15 0.32,0.253 0.241,0.559 0.224,-0.172 0.104,-0.691 -0.241,-0.76 v -2.903 l -4.02,-1.005 c -0.417,-0.105 -0.793,-0.287 -1.119,-0.526 0.032,-0.211 0.065,-0.425 -0.23,-0.39 0.015,0.074 0.04,0.164 0.063,0.258 -1.027,-0.858 -1.478,-2.315 -0.931,-3.69 0.607,-1.528 2.332,-2.296 3.926,-1.897 l 2.311,0.579 v -0.327 l -5.306,-2.653 c -0.094,-2.495 -0.046,-4.669 -0.292,-6.963 -0.132,0.029 -0.291,0.15 -0.116,0.17 0.068,2.361 -0.097,4.037 -0.113,6.274 -0.028,0.137 0.014,0.221 0.072,0.295 l -2.374,-1.187 c -0.004,-0.052 -0.003,-0.101 0.012,-0.14 -0.067,0.007 -0.091,0.046 -0.101,0.096 l -2.778,-1.39 c -1.565,-0.782 -2.381,-2.653 -1.684,-4.257 0.745,-1.716 2.76,-2.442 4.419,-1.612 l 8.054,4.025 -5.506,-5.505 c 0.007,-0.015 0.008,-0.028 -0.001,-0.035 -0.013,-0.01 -0.027,-0.01 -0.042,-0.008 l -2.464,-2.463 c -0.008,-0.018 -0.015,-0.036 -0.023,-0.054 -0.256,-4.287 3.686,-5.435 5.677,-3.443 l 2.566,2.567 v -8.001 c 0.07,-0.178 0.136,-0.344 0.206,-0.523 2.814,-2.937 6.266,-0.982 6.266,1.774 v 6.75 l 2.566,-2.566 c 0.633,-0.632 1.459,-0.948 2.288,-0.948 1.778,0 3.548,1.453 3.408,4.376 -0.007,0.014 -0.016,0.035 -0.022,0.05 l -8.033,8.031 8.054,-4.026 c 0.464,-0.233 0.958,-0.341 1.443,-0.341 1.331,0 2.605,0.82 3.077,2.218 0.523,1.547 -0.281,3.239 -1.741,3.969 l -11.04,5.52 v 0.327 l 2.451,-0.613 c 0.264,-0.065 0.528,-0.097 0.788,-0.097 1.597,0 3.034,1.187 3.217,2.916 0.172,1.621 -0.978,3.095 -2.56,3.491 l -3.896,0.975 v 6.43 l 2.052,-3.552 c 0.6,-1.037 1.687,-1.617 2.805,-1.617 0.777,0 1.572,0.278 2.218,0.887 1.116,1.051 1.264,2.783 0.497,4.111 l -1.976,3.423 5.608,-3.23 -1.105,-3.865 c -0.431,-1.508 0.195,-3.182 1.596,-3.888 1.88,-0.948 4.044,0.076 4.593,1.987 l 0.695,2.429 0.283,-0.162 -0.74,-12.332 c -0.092,-1.532 0.839,-3.003 2.316,-3.42 0.852,-0.24 1.678,-0.126 2.369,0.224 -0.226,0.021 0.287,0.23 -0.19,0.169 0.149,0.628 -0.242,0.851 -0.573,1.118 0.312,0.224 0.608,0.459 1.26,0.429 0.162,-0.665 -0.263,-0.89 -0.458,-1.289 -0.105,-0.15 0.101,-0.265 0.116,-0.345 0.909,0.524 1.546,1.479 1.613,2.608 l 0.541,8.989 2.535,-9.471 c 0.517,-1.927 2.671,-2.983 4.563,-2.063 1.41,0.686 2.059,2.349 1.653,3.863 l -0.904,3.379 5.845,-3.377 c 1.215,-0.703 2.695,-0.523 3.707,0.335 -0.019,0.02 -0.045,0.034 -0.09,0.034" /></g></svg>